<?xml version="1.0" standalone="no"?>
<!DOCTYPE svg PUBLIC "-//W3C//DTD SVG 20010904//EN"
 "http://www.w3.org/TR/2001/REC-SVG-20010904/DTD/svg10.dtd">
<svg version="1.0" xmlns="http://www.w3.org/2000/svg"
 width="157.000000pt" height="157.000000pt" viewBox="0 0 157.000000 157.000000"
 preserveAspectRatio="xMidYMid meet">
<metadata>
Created by potrace 1.11, written by Peter Selinger 2001-2013
</metadata>
<g transform="translate(0.000000,157.000000) scale(0.100000,-0.100000)"
fill="#000000" stroke="none">
<path d="M155 1272 c-23 -17 -36 -42 -45 -91 -19 -100 32 -257 130 -401 l41
-60 -33 -61 c-21 -40 -45 -69 -70 -85 -41 -26 -43 -54 -2 -54 30 0 59 31 96
105 17 33 32 61 33 63 1 2 17 -11 34 -29 25 -24 37 -30 56 -25 21 5 27 2 36
-21 20 -52 58 -93 88 -93 39 0 51 17 51 76 0 76 -35 178 -76 224 l-35 38 19
59 19 58 80 -160 c43 -88 87 -179 96 -203 16 -39 40 -62 53 -49 3 3 -1 41 -9
84 -9 43 -18 107 -20 143 l-5 65 21 -27 c19 -23 81 -174 102 -246 4 -14 13
-22 23 -20 14 3 18 23 25 118 9 120 -6 367 -23 384 -13 13 -40 -12 -40 -38 0
-11 7 -39 15 -61 18 -51 21 -316 3 -275 -55 122 -108 229 -125 250 -18 21 -23
22 -37 11 -18 -15 -22 -71 -6 -87 5 -5 12 -43 16 -84 l6 -75 -61 128 c-34 70
-72 159 -84 197 -16 51 -27 70 -40 70 -24 0 -39 -43 -26 -76 7 -20 6 -41 -6
-78 -18 -63 -25 -73 -50 -77 -27 -5 -30 -45 -11 -113 9 -30 16 -64 16 -75 0
-33 -35 -26 -65 13 -25 33 -26 36 -14 102 15 85 6 220 -20 302 -39 127 -111
207 -156 174z m106 -171 c11 -31 25 -77 30 -105 11 -61 12 -213 1 -220 -12 -7
-87 126 -114 200 -25 70 -30 186 -9 224 l14 24 29 -34 c15 -19 38 -59 49 -89z
m248 -375 c25 -68 37 -161 21 -171 -18 -11 -48 23 -70 81 -15 42 -18 67 -13
114 6 58 7 60 24 44 10 -9 27 -40 38 -68z"/>
<path d="M1138 1111 c-15 -12 -34 -44 -44 -73 l-17 -52 -18 35 c-61 118 -145
100 -143 -30 1 -72 26 -156 76 -256 58 -117 109 -190 133 -190 37 0 28 37 -21
95 -70 81 -123 167 -140 228 -17 58 -15 145 4 164 18 18 51 -10 82 -72 34 -68
50 -76 50 -26 0 59 53 156 86 156 35 0 30 -126 -11 -260 -36 -117 -36 -125 -3
-123 15 1 47 15 71 32 l43 29 -4 -58 c-7 -96 14 -140 65 -140 32 0 93 37 93
56 0 19 -7 18 -37 -6 -31 -24 -66 -26 -83 -5 -20 25 -4 112 35 191 42 85 44
107 13 102 -15 -2 -31 -19 -47 -48 -25 -45 -103 -130 -119 -130 -5 0 4 46 21
103 34 119 42 246 17 271 -27 27 -72 30 -102 7z"/>
<path d="M1386 1008 c-18 -25 -21 -64 -7 -72 15 -9 71 27 71 46 0 50 -37 65
-64 26z"/>
<path d="M1386 523 c-6 -14 -5 -15 5 -6 7 7 10 15 7 18 -3 3 -9 -2 -12 -12z"/>
<path d="M700 369 c0 -36 2 -40 23 -37 35 5 32 78 -4 78 -16 0 -19 -7 -19 -41z
m36 -2 c2 -17 -2 -27 -10 -27 -8 0 -13 13 -14 31 -1 37 20 34 24 -4z"/>
<path d="M831 372 c-1 -41 0 -43 27 -40 20 2 28 9 30 27 3 19 6 21 14 10 8
-12 9 -12 5 1 -2 9 -15 15 -33 15 -16 0 -32 7 -36 15 -4 8 -7 -4 -7 -28z m49
-12 c0 -13 -7 -20 -20 -20 -19 0 -27 20 -13 33 13 14 33 6 33 -13z"/>
<path d="M981 373 c-1 -34 3 -43 15 -43 13 0 14 3 4 15 -15 19 -3 38 21 32 11
-3 16 -1 13 5 -3 5 -15 8 -25 5 -11 -3 -20 1 -22 12 -3 9 -5 -3 -6 -26z"/>
<path d="M1188 398 c-2 -7 -1 -26 2 -43 l6 -30 5 32 c6 34 -4 66 -13 41z"/>
<path d="M766 383 c-9 -9 -7 -41 3 -47 4 -3 6 6 3 19 -3 18 0 25 12 25 22 0
33 -30 15 -41 -11 -7 -11 -9 4 -9 12 0 17 8 17 28 0 22 -5 28 -24 30 -13 1
-26 -1 -30 -5z"/>
<path d="M933 370 c-3 -11 -9 -20 -14 -20 -5 0 -9 -10 -9 -22 0 -12 2 -19 5
-17 9 10 35 79 29 79 -3 0 -8 -9 -11 -20z"/>
<path d="M1042 360 c-13 -17 -19 -30 -13 -30 6 0 11 5 11 12 0 9 3 9 12 0 7
-7 17 -12 23 -12 5 0 4 4 -4 9 -18 11 -7 41 15 41 12 0 15 -7 11 -26 -3 -16
-1 -22 5 -16 16 16 5 47 -17 49 -12 2 -29 -9 -43 -27z"/>
<path d="M1120 366 c0 -14 4 -27 8 -30 5 -3 6 8 4 25 -5 35 -12 38 -12 5z"/>
<path d="M1241 376 c-12 -15 -5 -46 11 -46 6 0 5 6 -2 15 -6 8 -9 19 -5 25 9
14 32 13 38 -2 3 -8 6 -6 6 5 1 21 -31 23 -48 3z"/>
<path d="M1350 364 c0 -21 -4 -25 -20 -21 -11 3 -20 1 -20 -4 0 -5 11 -9 25
-9 21 0 25 5 25 30 0 17 -2 30 -5 30 -3 0 -5 -12 -5 -26z"/>
<path d="M1377 383 c-10 -9 -9 -41 2 -47 4 -3 6 6 3 19 -5 28 14 34 38 13 12
-11 12 -10 1 5 -14 17 -33 22 -44 10z"/>
<path d="M1158 355 c-3 -14 -1 -25 3 -25 5 0 9 11 9 25 0 14 -2 25 -4 25 -2 0
-6 -11 -8 -25z"/>
<path d="M1275 340 c-3 -5 -1 -10 4 -10 6 0 11 5 11 10 0 6 -2 10 -4 10 -3 0
-8 -4 -11 -10z"/>
</g>
</svg>
